<svg xmlns="http://www.w3.org/2000/svg" viewBox="0 0 120 120" width="120" height="120" role="img" xmlns:c2pa="http://c2pa.org/manifest"><metadata><c2pa:manifest>AAAWgmp1bWIAAAAeanVtZGMycGEAEQAQgAAAqgA4m3EDYzJwYQAAABZcanVtYgAAAEdqdW1kYzJtYQARABCAAACqADibcQN1cm46YzJwYTphZjViNTlmMy1iNWI2LTQ3MGMtOTBiYS0yMTQ1MjJkMDJjZWYAAAADl2p1bWIAAAApanVtZGMyYXMAEQAQgAAAqgA4m3EDYzJwYS5hc3NlcnRpb25zAAAAALxqdW1iAAAARGp1bWRjYm9yABEAEIAAAKoAOJtxE2MycGEuaW5ncmVkaWVudC52MwAAAAAYYzJzaN4gxZXbef+X6iSIQvZwhTQAAABwY2JvcqNpZGM6Zm9ybWF0bWltYWdlL3N2Zyt4bWxqaW5zdGFuY2VJRHgseG1wOmlpZDoyZDhjNDIwZi0wYjQyLTQwN2ItYmIxYS1mYWVjZTQwMmQxMDhscmVsYXRpb25zaGlwaHBhcmVudE9mAAAB4mp1bWIAAABBanVtZGNib3IAEQAQgAAAqgA4m3ETYzJwYS5hY3Rpb25zLnYyAAAAABhjMnNoWmfoC7+WW0dQMfXoTG1ZrQAAAZljYm9yomdhY3Rpb25zgqJmYWN0aW9ua2MycGEub3BlbmVkanBhcmFtZXRlcnOha2luZ3JlZGllbnRzgaJjdXJseC1zZWxmI2p1bWJmPWMycGEuYXNzZXJ0aW9ucy9jMnBhLmluZ3JlZGllbnQudjNkaGFzaFggSoLgE3FnbzVB5oXOWK8oh7KcXyLX8QqPktMu87bYiTKkZmFjdGlvbngdY29tLmFudGhyb3BpYy5jbGF1ZGUucHJvdmlkZWRqcGFyYW1ldGVyc6F4H2NvbS5hbnRocm9waWMub3JpZ2luLWNvbmZpZGVuY2VndW5rbm93bmtkZXNjcmlwdGlvbnhmQ2xhdWRlIHByb3ZpZGVkIHRoaXMgZmlsZSBhdCB0aGUgcmVxdWVzdCBvZiBhIHVzZXIgYW5kIG1heSBoYXZlIGNyZWF0ZWQgb3IgbW9kaWZpZWQgdGhlIGZpbGUgY29udGVudHMubXNvZnR3YXJlQWdlbnShZG5hbWVmQ2xhdWRlcmFsbEFjdGlvbnNJbmNsdWRlZPUAAADIanVtYgAAAEBqdW1kY2JvcgARABCAAACqADibcRNjMnBhLmhhc2guZGF0YQAAAAAYYzJzaKOEbAYg1W3mnQmJzFywqgwAAACAY2JvcqVjYWxnZnNoYTI1NmNwYWRNAAAAAAAAAAAAAAAAAGRoYXNoWCCb/Kr3WU6iT77kU/MfP3wxD9yujhkAS067blQilrqICmRuYW1lbmp1bWJmIG1hbmlmZXN0amV4Y2x1c2lvbnOBomVzdGFydBihZmxlbmd0aBkeBAAAAj5qdW1iAAAAJ2p1bWRjMmNsABEAEIAAAKoAOJtxA2MycGEuY2xhaW0udjIAAAACD2Nib3KlY2FsZ2ZzaGEyNTZpc2lnbmF0dXJleE1zZWxmI2p1bWJmPS9jMnBhL3VybjpjMnBhOmFmNWI1OWYzLWI1YjYtNDcwYy05MGJhLTIxNDUyMmQwMmNlZi9jMnBhLnNpZ25hdHVyZWppbnN0YW5jZUlEeCx4bXA6aWlkOjIzYzVhMjQ0LWY1YWUtNDkxNy1iNGM1LTE0OGZiY2VlNGE0MHJjcmVhdGVkX2Fzc2VydGlvbnODomN1cmx4LXNlbGYjanVtYmY9YzJwYS5hc3NlcnRpb25zL2MycGEuaW5ncmVkaWVudC52M2RoYXNoWCBKguATcWdvNUHmhc5YryiHspxfItfxCo+S0y7zttiJMqJjdXJseCpzZWxmI2p1bWJmPWMycGEuYXNzZXJ0aW9ucy9jMnBhLmFjdGlvbnMudjJkaGFzaFggFA0o2RTEVsUVLZzrFUfWiuWVYgk9xNzowcig1mSUTSeiY3VybHgpc2VsZiNqdW1iZj1jMnBhLmFzc2VydGlvbnMvYzJwYS5oYXNoLmRhdGFkaGFzaFgg10QbLg//3T6C1cwfmwKe4bTXMfygZol4BwdP4gSXnPl0Y2xhaW1fZ2VuZXJhdG9yX2luZm+jZG5hbWVvQW50aHJvcGljIEZpbGVzZ3ZlcnNpb25lMS4wLjBrc3BlY1ZlcnNpb25lMi40LjAAABA4anVtYgAAAChqdW1kYzJjcwARABCAAACqADibcQNjMnBhLnNpZ25hdHVyZQAAABAIY2JvctKEWQISogEmGCFZAgowggIGMIIBjaADAgECAhRA5aAK7sI50L64g/oGQgU9Z1UTADAKBggqhkjOPQQDAzBJMRcwFQYDVQQKEw5BbnRocm9waWMsIFBCQzEuMCwGA1UEAxMlQW50aHJvcGljIENvbnRlbnQgQ3JlZGVudGlhbHMgUm9vdCBDQTAeFw0yNjA4MDcxODQzNTZaFw0yODA4MDYxOTQzNTZaMEQxFzAVBgNVBAoTDkFudGhyb3BpYywgUEJDMSkwJwYDVQQDEyBBbnRocm9waWMgQ2xhdWRlIENvbnRlbnQgU2lnbmluZzBZMBMGByqGSM49AgEGCCqGSM49AwEHA0IABJh6CmvLUBgFFNU0vUKlOVtE6djd17L5SuwX0LemFisBM3dkd/3cyjxFA3Qo5S46fX0/ihY0VZ7mfb9KF703t5OjWDBWMA4GA1UdDwEB/wQEAwIHgDAVBgNVHSUEDjAMBgorBgEEAYPoXgIBMAwGA1UdEwEB/wQCMAAwHwYDVR0jBBgwFoAUzlHiBIFOZFsj+OPEz5o+nMHXXMIwCgYIKoZIzj0EAwMDZwAwZAIwMXMdFJ4BetLLVY7ORuE9noqbbAZOZn/aArXyTwFAZfKrPzxF2vPoJNf1+UCdg1XGAjBwX1zd9WGqYkqmL5SFqw1QySjr1zJfpJM9+1rdDwSPLMOPOjKuiXjoU/pUUeG9RwmhY3BhZFkNngAAAAAAAAAAAAAAAAAAAAAAAAAAAAAAAAAAAAAAAAAAAAAAAAAAAAAAAAAAAAAAAAAAAAAAAAAAAAAAAAAAAAAAAAAAAAAAAAAAAAAAAAAAAAAAAAAAAAAAAAAAAAAAAAAAAAAAAAAAAAAAAAAAAAAAAAAAAAAAAAAAAAAAAAAAAAAAAAAAAAAAAAAAAAAAAAAAAAAAAAAAAAAAAAAAAAAAAAAAAAAAAAAAAAAAAAAAAAAAAAAAAAAAAAAAAAAAAAAAAAAAAAAAAAAAAAAAAAAAAAAAAAAAAAAAAAAAAAAAAAAAAAAAAAAAAAAAAAAAAAAAAAAAAAAAAAAAAAAAAAAAAAAAAAAAAAAAAAAAAAAAAAAAAAAAAAAAAAAAAAAAAAAAAAAAAAAAAAAAAAAAAAAAAAAAAAAAAAAAAAAAAAAAAAAAAAAAAAAAAAAAAAAAAAAAAAAAAAAAAAAAAAAAAAAAAAAAAAAAAAAAAAAAAAAAAAAAAAAAAAAAAAAAAAAAAAAAAAAAAAAAAAAAAAAAAAAAAAAAAAAAAAAAAAAAAAAAAAAAAAAAAAAAAAAAAAAAAAAAAAAAAAAAAAAAAAAAAAAAAAAAAAAAAAAAAAAAAAAAAAAAAAAAAAAAAAAAAAAAAAAAAAAAAAAAAAAAAAAAAAAAAAAAAAAAAAAAAAAAAAAAAAAAAAAAAAAAAAAAAAAAAAAAAAAAAAAAAAAAAAAAAAAAAAAAAAAAAAAAAAAAAAAAAAAAAAAAAAAAAAAAAAAAAAAAAAAAAAAAAAAAAAAAAAAAAAAAAAAAAAAAAAAAAAAAAAAAAAAAAAAAAAAAAAAAAAAAAAAAAAAAAAAAAAAAAAAAAAAAAAAAAAAAAAAAAAAAAAAAAAAAAAAAAAAAAAAAAAAAAAAAAAAAAAAAAAAAAAAAAAAAAAAAAAAAAAAAAAAAAAAAAAAAAAAAAAAAAAAAAAAAAAAAAAAAAAAAAAAAAAAAAAAAAAAAAAAAAAAAAAAAAAAAAAAAAAAAAAAAAAAAAAAAAAAAAAAAAAAAAAAAAAAAAAAAAAAAAAAAAAAAAAAAAAAAAAAAAAAAAAAAAAAAAAAAAAAAAAAAAAAAAAAAAAAAAAAAAAAAAAAAAAAAAAAAAAAAAAAAAAAAAAAAAAAAAAAAAAAAAAAAAAAAAAAAAAAAAAAAAAAAAAAAAAAAAAAAAAAAAAAAAAAAAAAAAAAAAAAAAAAAAAAAAAAAAAAAAAAAAAAAAAAAAAAAAAAAAAAAAAAAAAAAAAAAAAAAAAAAAAAAAAAAAAAAAAAAAAAAAAAAAAAAAAAAAAAAAAAAAAAAAAAAAAAAAAAAAAAAAAAAAAAAAAAAAAAAAAAAAAAAAAAAAAAAAAAAAAAAAAAAAAAAAAAAAAAAAAAAAAAAAAAAAAAAAAAAAAAAAAAAAAAAAAAAAAAAAAAAAAAAAAAAAAAAAAAAAAAAAAAAAAAAAAAAAAAAAAAAAAAAAAAAAAAAAAAAAAAAAAAAAAAAAAAAAAAAAAAAAAAAAAAAAAAAAAAAAAAAAAAAAAAAAAAAAAAAAAAAAAAAAAAAAAAAAAAAAAAAAAAAAAAAAAAAAAAAAAAAAAAAAAAAAAAAAAAAAAAAAAAAAAAAAAAAAAAAAAAAAAAAAAAAAAAAAAAAAAAAAAAAAAAAAAAAAAAAAAAAAAAAAAAAAAAAAAAAAAAAAAAAAAAAAAAAAAAAAAAAAAAAAAAAAAAAAAAAAAAAAAAAAAAAAAAAAAAAAAAAAAAAAAAAAAAAAAAAAAAAAAAAAAAAAAAAAAAAAAAAAAAAAAAAAAAAAAAAAAAAAAAAAAAAAAAAAAAAAAAAAAAAAAAAAAAAAAAAAAAAAAAAAAAAAAAAAAAAAAAAAAAAAAAAAAAAAAAAAAAAAAAAAAAAAAAAAAAAAAAAAAAAAAAAAAAAAAAAAAAAAAAAAAAAAAAAAAAAAAAAAAAAAAAAAAAAAAAAAAAAAAAAAAAAAAAAAAAAAAAAAAAAAAAAAAAAAAAAAAAAAAAAAAAAAAAAAAAAAAAAAAAAAAAAAAAAAAAAAAAAAAAAAAAAAAAAAAAAAAAAAAAAAAAAAAAAAAAAAAAAAAAAAAAAAAAAAAAAAAAAAAAAAAAAAAAAAAAAAAAAAAAAAAAAAAAAAAAAAAAAAAAAAAAAAAAAAAAAAAAAAAAAAAAAAAAAAAAAAAAAAAAAAAAAAAAAAAAAAAAAAAAAAAAAAAAAAAAAAAAAAAAAAAAAAAAAAAAAAAAAAAAAAAAAAAAAAAAAAAAAAAAAAAAAAAAAAAAAAAAAAAAAAAAAAAAAAAAAAAAAAAAAAAAAAAAAAAAAAAAAAAAAAAAAAAAAAAAAAAAAAAAAAAAAAAAAAAAAAAAAAAAAAAAAAAAAAAAAAAAAAAAAAAAAAAAAAAAAAAAAAAAAAAAAAAAAAAAAAAAAAAAAAAAAAAAAAAAAAAAAAAAAAAAAAAAAAAAAAAAAAAAAAAAAAAAAAAAAAAAAAAAAAAAAAAAAAAAAAAAAAAAAAAAAAAAAAAAAAAAAAAAAAAAAAAAAAAAAAAAAAAAAAAAAAAAAAAAAAAAAAAAAAAAAAAAAAAAAAAAAAAAAAAAAAAAAAAAAAAAAAAAAAAAAAAAAAAAAAAAAAAAAAAAAAAAAAAAAAAAAAAAAAAAAAAAAAAAAAAAAAAAAAAAAAAAAAAAAAAAAAAAAAAAAAAAAAAAAAAAAAAAAAAAAAAAAAAAAAAAAAAAAAAAAAAAAAAAAAAAAAAAAAAAAAAAAAAAAAAAAAAAAAAAAAAAAAAAAAAAAAAAAAAAAAAAAAAAAAAAAAAAAAAAAAAAAAAAAAAAAAAAAAAAAAAAAAAAAAAAAAAAAAAAAAAAAAAAAAAAAAAAAAAAAAAAAAAAAAAAAAAAAAAAAAAAAAAAAAAAAAAAAAAAAAAAAAAAAAAAAAAAAAAAAAAAAAAAAAAAAAAAAAAAAAAAAAAAAAAAAAAAAAAAAAAAAAAAAAAAAAAAAAAAAAAAAAAAAAAAAAAAAAAAAAAAAAAAAAAAAAAAAAAAAAAAAAAAAAAAAAAAAAAAAAAAAAAAAAAAAAAAAAAAAAAAAAAAAAAAAAAAAAAAAAAAAAAAAAAAAAAAAAAAAAAAAAAAAAAAAAAAAAAAAAAAAAAAAAAAAAAAAAAAAAAAAAAAAAAAAAAAAAAAAAAAAAAAAAAAAAAAAAAAAAAAAAAAAAAAAAAAAAAAAAAAAAAAAAAAAAAAAAAAAAAAAAAAAAAAAAAAAAAAAAAAAAAAAAAAAAAAAAAAAAAAAAAAAAAAAAAAAAAAAAAAAAAAAAAAAAAAAAAAAAAAAAAAAAAAAAAAAAAAAAAAAAAAAAAAAAAAAAAAAAAAAAAAAAAAAAAAAAAAAAAAAAAAAAAAAAAAAAAAAAAAAAAAAAAAAAAAAAAAAAAAAAAAAAAAAAAAAAAAAAAAAAAAAAAAAAAAAAAAAAAAAAAAAAAAAAAAAAAAAAAAAAAAAAAAAAAAAAAAAAAAAAAAAAAAAAAAAAAAAAAAAAAAAAAAAAAAAAAAAAAAAAAAAAAAAAAAAAAAAAAAAAAAAAAAAAAAAAAAAAAAAAAAAAAAAAAAAAAAAAAAAAAAAAAAAAAAAAAAAAAAAAAAAAAAAAAAAAAAAAAAAAAAAAAAAAAAAAAAAAAAAAAAAAAAAAAAAAAAAAAAAAAAAAAAAAAAAAAAAAAAAAAAAAAAAAAAAAAAAAAAAAAAAAAAAAAAAAAAAAAAAAAAAAAAAAAAAAAAAAAAAAAAAAAAAAAAAAAAAAAAAAAAAAAAAAAAAAAAAAAAAAAAAAAAAAAAAAAAAAAAAAAAAAAAAAAAAAAAAAAAAAAAAAAAAAAAAAAAAAAAAAAAAAAAAAAAAAAAAAAAAAAAAAAAAAAAAAAAAAAAAAAAAAAAAAAAAAAAAAAAAAAAAAAAAAAAAAAAAAAAAAAAAAAAAAAAAAAAAAAAAAAAAAAAAAAAAAAAAAAAAAAAAAAAAAAAAAAAAAAAAAAAAAAAAAAAAAAAAAAAAAAAAAAAAAAAAAAAAAAAAAAAAAAAAAAAAAAAAAAAAAAAAAAAAAAAAAAAAAAAAAAAAAAAAAAAAAAAAAAAAAAAAAAAAAAAAAAAAAAAAAAAAAAAAAAAAAAAAAAAAAAAAAAAAAAAAAAAAAAAAAAAAAAAAAAAAAAAAAAAAAAAAAAAAAAAAAAAAAAAAAAAAAAAAAAAAAAAAAAAAAAAAAAAAAAAAAAAAAAAAAAAAAAAAAAAAAAAAAAAAAAAAAAAAAAAAAAAAAAAAAAAAAAAAAAAAAAAAAAAAAAAAAAAAAAAAAAAAAAAAAAAAAAAAAAAAAAAAAAAAAAAAAAAAAAAAAAAAAAAAAAAAAAAAAAAAAAAAAAAAAAAAAAAAAAAAAAAAAAAAAAAAAAAAAAAAAAAAAAAAAAAAAAAAAAAAAAAAAAAAAAAAAAAAAAAAAAAAAAAAAAAAAAAAAAAAAAAAAAAAAAAAAAAAAAAAAAAAAAAAAAAAAAAAAAAAAAAAAAAAAAAAAAAAAAAAAAAAAAAAAAAAAAAAAAAAAAAAAAAAAAAAAAAAAAAAAAAAAAAAAAAAAAAAAAAAAAAAAAAAAAAAAAAAAAAAAAAAAAAAAAAAAAAAAAAAAAAAAPZYQEnkbIGmLV1wTViS91S1UPvaZpDhdYCFA72GUxoQT4LJgDdYYUQYVwClRSSsqme8MLMg8wMeauq0UjpoptEJEl0=</c2pa:manifest></metadata>
  <title>OpenCourant</title>
  <path d="M69.78 44.14 L70.91 44.17 L72.03 44.21 L73.15 44.24 L74.27 44.27 L75.38 44.30 L76.49 44.34 L77.59 44.37 L78.69 44.40 L79.78 44.44 L80.87 44.47 L81.96 44.51 L83.04 44.54 L84.12 44.58 L85.19 44.62 L86.26 44.66 L87.33 44.69 L88.39 44.73 L89.45 44.77 L90.50 44.81 L91.55 44.85 L92.60 44.89 L93.64 44.93 L94.68 44.97 L95.71 45.01 L95.31 46.31 L94.93 47.59 L94.58 48.86 L94.26 50.12 L93.98 51.38 L93.72 52.62 L93.50 53.86 L93.32 55.10 L93.18 56.33 L93.08 57.55 L93.02 58.78 L93.00 60.00 L93.02 61.22 L93.08 62.45 L93.18 63.67 L93.32 64.90 L93.50 66.14 L93.72 67.38 L93.98 68.62 L94.26 69.88 L94.58 71.14 L94.93 72.41 L95.31 73.69 L95.71 74.99 L94.68 75.03 L93.64 75.07 L92.60 75.11 L91.55 75.15 L90.50 75.19 L89.45 75.23 L88.39 75.27 L87.33 75.31 L86.26 75.34 L85.19 75.38 L84.12 75.42 L83.04 75.46 L81.96 75.49 L80.87 75.53 L79.78 75.56 L78.69 75.60 L77.59 75.63 L76.49 75.66 L75.38 75.70 L74.27 75.73 L73.15 75.76 L72.03 75.79 L70.91 75.83 L69.78 75.86 L69.59 74.51 L69.40 73.18 L69.24 71.84 L69.08 70.52 L68.94 69.19 L68.82 67.87 L68.72 66.55 L68.63 65.24 L68.56 63.93 L68.51 62.62 L68.48 61.31 L68.47 60.00 L68.48 58.69 L68.51 57.38 L68.56 56.07 L68.63 54.76 L68.72 53.45 L68.82 52.13 L68.94 50.81 L69.08 49.48 L69.24 48.16 L69.40 46.82 L69.59 45.49 Z" fill="#10B981"/>
  <path d="M42.84 10.17 L42.77 12.27 L42.70 14.37 L42.62 16.47 L42.54 18.57 L42.45 20.66 L42.36 22.76 L42.26 24.85 L42.16 26.94 L42.06 29.03 L41.95 31.12 L41.85 33.20 L41.74 35.28 L41.64 37.36 L41.54 39.43 L41.44 41.50 L41.36 43.57 L41.27 45.63 L41.20 47.69 L41.13 49.75 L41.08 51.80 L41.04 53.85 L41.01 55.90 L40.99 57.95 L40.98 60.00 L40.99 62.05 L41.01 64.10 L41.04 66.15 L41.08 68.20 L41.13 70.25 L41.20 72.31 L41.27 74.37 L41.36 76.43 L41.44 78.50 L41.54 80.57 L41.64 82.64 L41.74 84.72 L41.85 86.80 L41.95 88.88 L42.06 90.97 L42.16 93.06 L42.26 95.15 L42.36 97.24 L42.45 99.34 L42.54 101.43 L42.62 103.53 L42.70 105.63 L42.77 107.73 L42.84 109.83" fill="none" stroke="#FFFFFF" stroke-width="5" stroke-linecap="round"/>
  <path d="M10.00 43.33 L12.07 43.33 L14.12 43.34 L16.15 43.34 L18.17 43.35 L20.17 43.36 L22.16 43.37 L24.14 43.39 L26.10 43.40 L28.05 43.42 L29.98 43.43 L31.91 43.45 L33.82 43.47 L35.72 43.49 L37.61 43.52 L39.49 43.54 L41.36 43.57 L43.21 43.59 L45.05 43.62 L46.89 43.65 L48.71 43.68 L50.52 43.71 L52.32 43.75 L54.12 43.78 L55.90 43.82 L57.67 43.85 L59.43 43.89 L61.18 43.93 L62.92 43.97 L64.65 44.01 L66.37 44.05 L68.08 44.10 L69.78 44.14 L71.47 44.19 L73.15 44.24 L74.82 44.29 L76.49 44.34 L78.14 44.39 L79.78 44.44 L81.42 44.49 L83.04 44.54 L84.66 44.60 L86.26 44.66 L87.86 44.71 L89.45 44.77 L91.03 44.83 L92.60 44.89 L94.16 44.95 L95.71 45.01" fill="none" stroke="#FFFFFF" stroke-width="5" stroke-linecap="round"/>
  <path d="M74.95 10.61 L74.72 12.74 L74.46 14.88 L74.19 17.01 L73.90 19.15 L73.59 21.28 L73.26 23.40 L72.93 25.52 L72.58 27.63 L72.22 29.73 L71.85 31.82 L71.49 33.91 L71.12 35.98 L70.77 38.04 L70.42 40.09 L70.09 42.12 L69.78 44.14 L69.49 46.16 L69.24 48.16 L69.01 50.15 L68.82 52.13 L68.67 54.10 L68.56 56.07 L68.50 58.04 L68.47 60.00 L68.50 61.96 L68.56 63.93 L68.67 65.90 L68.82 67.87 L69.01 69.85 L69.24 71.84 L69.49 73.84 L69.78 75.86 L70.09 77.88 L70.42 79.91 L70.77 81.96 L71.12 84.02 L71.49 86.09 L71.85 88.18 L72.22 90.27 L72.58 92.37 L72.93 94.48 L73.26 96.60 L73.59 98.72 L73.90 100.85 L74.19 102.99 L74.46 105.12 L74.72 107.26 L74.95 109.39" fill="none" stroke="#FFFFFF" stroke-width="5" stroke-linecap="round"/>
  <path d="M10.00 76.67 L12.07 76.67 L14.12 76.66 L16.15 76.66 L18.17 76.65 L20.17 76.64 L22.16 76.63 L24.14 76.61 L26.10 76.60 L28.05 76.58 L29.98 76.57 L31.91 76.55 L33.82 76.53 L35.72 76.51 L37.61 76.48 L39.49 76.46 L41.36 76.43 L43.21 76.41 L45.05 76.38 L46.89 76.35 L48.71 76.32 L50.52 76.29 L52.32 76.25 L54.12 76.22 L55.90 76.18 L57.67 76.15 L59.43 76.11 L61.18 76.07 L62.92 76.03 L64.65 75.99 L66.37 75.95 L68.08 75.90 L69.78 75.86 L71.47 75.81 L73.15 75.76 L74.82 75.71 L76.49 75.66 L78.14 75.61 L79.78 75.56 L81.42 75.51 L83.04 75.46 L84.66 75.40 L86.26 75.34 L87.86 75.29 L89.45 75.23 L91.03 75.17 L92.60 75.11 L94.16 75.05 L95.71 74.99" fill="none" stroke="#FFFFFF" stroke-width="5" stroke-linecap="round"/>
  <path d="M10.00 10.00 L12.08 10.00 L14.15 10.00 L16.23 10.01 L18.29 10.01 L20.36 10.02 L22.42 10.03 L24.47 10.04 L26.53 10.05 L28.57 10.06 L30.62 10.07 L32.67 10.09 L34.71 10.10 L36.74 10.12 L38.78 10.14 L40.81 10.15 L42.84 10.17 L44.87 10.19 L46.89 10.22 L48.91 10.24 L50.93 10.26 L52.95 10.28 L54.96 10.31 L56.97 10.33 L58.98 10.36 L60.98 10.39 L62.98 10.42 L64.99 10.45 L66.98 10.48 L68.98 10.51 L70.97 10.54 L72.96 10.57 L74.95 10.61 L76.93 10.64 L78.92 10.68 L80.90 10.71 L82.88 10.75 L84.85 10.79 L86.83 10.83 L88.80 10.87 L90.77 10.91 L92.73 10.95 L94.70 10.99 L96.66 11.03 L98.62 11.08 L100.58 11.12 L102.53 11.16 L104.49 11.21 L106.44 11.26 L105.95 13.45 L105.43 15.65 L104.86 17.84 L104.26 20.02 L103.62 22.20 L102.94 24.37 L102.24 26.52 L101.51 28.66 L100.77 30.79 L100.01 32.89 L99.25 34.97 L98.50 37.03 L97.76 39.06 L97.04 41.07 L96.35 43.06 L95.71 45.01 L95.12 46.95 L94.58 48.86 L94.11 50.75 L93.72 52.62 L93.41 54.48 L93.18 56.33 L93.05 58.17 L93.00 60.00 L93.05 61.83 L93.18 63.67 L93.41 65.52 L93.72 67.38 L94.11 69.25 L94.58 71.14 L95.12 73.05 L95.71 74.99 L96.35 76.94 L97.04 78.93 L97.76 80.94 L98.50 82.97 L99.25 85.03 L100.01 87.11 L100.77 89.21 L101.51 91.34 L102.24 93.48 L102.94 95.63 L103.62 97.80 L104.26 99.98 L104.86 102.16 L105.43 104.35 L105.95 106.55 L106.44 108.74 L104.49 108.79 L102.53 108.84 L100.58 108.88 L98.62 108.92 L96.66 108.97 L94.70 109.01 L92.73 109.05 L90.77 109.09 L88.80 109.13 L86.83 109.17 L84.85 109.21 L82.88 109.25 L80.90 109.29 L78.92 109.32 L76.93 109.36 L74.95 109.39 L72.96 109.43 L70.97 109.46 L68.98 109.49 L66.98 109.52 L64.99 109.55 L62.98 109.58 L60.98 109.61 L58.98 109.64 L56.97 109.67 L54.96 109.69 L52.95 109.72 L50.93 109.74 L48.91 109.76 L46.89 109.78 L44.87 109.81 L42.84 109.83 L40.81 109.85 L38.78 109.86 L36.74 109.88 L34.71 109.90 L32.67 109.91 L30.62 109.93 L28.57 109.94 L26.53 109.95 L24.47 109.96 L22.42 109.97 L20.36 109.98 L18.29 109.99 L16.23 109.99 L14.15 110.00 L12.08 110.00 L10.00 110.00 L10.00 107.92 L10.00 105.83 L10.00 103.75 L10.00 101.67 L10.00 99.58 L10.00 97.50 L10.00 95.42 L10.00 93.33 L10.00 91.25 L10.00 89.17 L10.00 87.08 L10.00 85.00 L10.00 82.92 L10.00 80.83 L10.00 78.75 L10.00 76.67 L10.00 74.58 L10.00 72.50 L10.00 70.42 L10.00 68.33 L10.00 66.25 L10.00 64.17 L10.00 62.08 L10.00 60.00 L10.00 57.92 L10.00 55.83 L10.00 53.75 L10.00 51.67 L10.00 49.58 L10.00 47.50 L10.00 45.42 L10.00 43.33 L10.00 41.25 L10.00 39.17 L10.00 37.08 L10.00 35.00 L10.00 32.92 L10.00 30.83 L10.00 28.75 L10.00 26.67 L10.00 24.58 L10.00 22.50 L10.00 20.42 L10.00 18.33 L10.00 16.25 L10.00 14.17 L10.00 12.08 Z" fill="none" stroke="#FFFFFF" stroke-width="7" stroke-linejoin="round"/>
</svg>
